<svg xmlns="http://www.w3.org/2000/svg" viewBox="0 0 408 360" id="barq-logo-svg" class="barq-logo">
    <title>Logo</title>
    <!-- changing the fill and fill-opacity attributes of this element allows you to color the text in a different way -->
    <rect class="text-bg" fill="none" width="341.147" height="99.393" x="21.702" y="96.789" ry="0"/>
    <!-- changing the fill and fill-opacity attributes of this element allows you to hide the shadow -->
    <path class="shadow" fill="#ff6a00" d="M408 71.678v176.608c0 26.635-21.562 47.679-47.998 47.679H180.009l-91.442 58.102c-16.072 11.718-16.554 4.022-16.568-5.39l-.001-23.333 84.01-53.38h179.994c26.436 0 47.998-21.043 47.998-47.678V47.678c0-6.9-1.48-13.502-4.16-19.475C396.647 35.737 408 52.56 408 71.678M28.215 267.667a47.5 47.5 0 0 0 19.783 4.298v17.52c-8.551-4.973-15.443-12.494-19.61-21.445z"/>
    <path d="M47.998 0C21.562 0 0 21.043 0 47.678v176.61c0 25.954 21.562 47.677 47.998 47.677v51.834c0 9.795.001 18.347 16.57 6.267l91.442-58.101h179.992c26.436 0 47.998-21.043 47.998-47.678V47.677C384 21.724 363.075 0 335.986 0zm235.02 98.586c23.755 0 41.962 17.404 41.962 40.353 0 13.799-6.686 25.557-17.212 32.717 5.215 1.233 11.333 1.99 17.498 2.133l-6.924 18.066c-13.846-.995-22.712-6.685-29.635-13.181a46 46 0 0 1-5.738.332c-23.756 0-41.916-17.307-41.916-40.067 0-22.95 18.209-40.353 41.965-40.353m-163.352 1.092h9.625l35.563 77.385h-22.239l-3.84-8.917H110.23l-3.888 8.917H84.15zm-95.166.947h25.13c13.847 0 23.993 9.343 23.993 19.87 0 7.87-5.214 13.513-8.344 13.513 8.156 0 17.307 8.202 17.307 19.724 0 12.092-10.147 23.33-25.463 23.33H24.5zm147.988 0h29.02c16.5 0 28.306 11.144 28.306 24.848 0 9.53-5.736 17.496-13.228 20.91l20.484 30.68h-23.756l-20.437-33.194v33.194h-20.295zm163.303 0h23.52l-3.272 49.74h-16.834zm-52.773 17.26c-12.14 0-21.434 9.105-21.434 20.912 0 11.76 9.295 20.816 21.434 20.816 12.138 0 21.431-9.057 21.431-20.816 0-11.807-9.293-20.912-21.431-20.912m-238.983.38v11.997h4.838c4.41 0 7.729-2.182 7.729-6.117 0-3.699-3.226-5.88-7.588-5.88zm148.748.616v15.316l8.297.047c4.315.048 8.25-2.987 8.25-7.681 0-4.742-3.982-7.682-8.25-7.682zm-68.281 16.312-7.871 18.114h15.695zm-80.467 8.914v14.51h10.006c4.647 0 9.104-2.276 9.104-7.303 0-4.457-3.224-7.16-8.961-7.16zm303.516 13.514c6.543 0 11.949 5.168 11.949 11.19 0 6.116-5.405 10.953-11.854 10.953-6.496 0-11.855-4.978-11.855-11.19 0-6.07 5.406-10.953 11.76-10.953"/>
</svg>
