<svg xmlns="http://www.w3.org/2000/svg" xml:space="preserve" viewBox="0 0 36.77 38.3">
  <title>FurAffinity Logo</title>
  <path d="M15.43 38.49c-.43-.48-.57-1.01-.44-1.67.24-1.3.28-2.64.67-3.93.33-1.09-.29-2.17-1.33-2.65-.29-.13-.4-.11-.4.22 0 .41.02.83-.05 1.23-.09.46-.22 1.02-.88.89-.58-.11-.55-.63-.51-1.07s.16-.88.19-1.32c.02-.38.02-.8-.33-1.04-.37-.25-.65.05-.92.26-.45.36-.88.27-1.1-.2-.29-.6-.53-.26-.76-.03-.85.88-1.85 1.54-2.92 2.1-1.03.54-1.72 1.37-2.11 2.47-.2.56-.37 1.15-.77 1.63-.44.53-.99.62-1.56.39-.55-.23-.63-.75-.57-1.29.04-.35.14-.7.38-.96C3.6 31.85 4.88 29.87 7 28.77c.39-.2.76-.48 1.07-.79.3-.3 1-.66.05-1.07-.21-.09-.14-.32-.06-.51.04-.08.06-.17.09-.26-1.12.09-.63-.84-.87-1.32-.2-.41-.7-.39-1.1-.37-.39.01-.72.22-1.03.45-.28.21-.56.43-.87.58-.9.43-2.05.09-2.31-.65-.24-.66.46-1.66 1.36-1.9.4-.1.81-.12 1.22-.16.35-.04.7-.03 1.04-.1.54-.11 1.15-.36 1.19-.91.04-.51-.61-.66-1.05-.81a8.16 8.16 0 0 0-4.13-.27c-.4.08-.76.13-1.04-.22-.2-.24-.22-.52-.09-.8.21-.45.66-.61 1.04-.46 1.5.59 2.93-.01 4.38-.19 1.17-.15 1.48-.7 1.03-1.8-.07-.17-.23-.37-.09-.53 1.01-1.14-.01-2.12-.31-3.11-.2-.65-.15-.96.51-1.1.31-.06.64-.06.94-.15.36-.11.88.03.99-.54.1-.47-.03-.87-.38-1.21-1.03-.99-2.1-1.93-3.4-2.58-.41-.22-.83-.46-1.2-.75-.36-.27-.65-.65-.47-1.15.18-.51.54-.85 1.1-.94.45-.07.89-.01 1.29.22 1.29.75 2.56 1.54 3.45 2.79.17.23.34.52.62.57.67.12 1.05.5 1.26 1.12.14.42.47.72.94.63.5-.09.33-.55.32-.86-.01-.44.07-.73.59-.78.73-.06.67-.43.41-.99-.39-.87-.88-1.68-1.31-2.53-.32-.63-.74-1.37-.06-2 .36-.33 1.2.36 1.58 1.33.24.62.39 1.27.63 1.89.11.3.23.77.68.61.37-.13.27-.58.17-.85-.47-1.28-.99-2.53-1.5-3.79-.14-.35-.32-.69-.45-1.04-.1-.28-.08-.6.23-.74.35-.15.52.13.63.4.15.38.31.77.39 1.17.39 1.91 1.58 3.36 2.77 4.81.24.29.48.42.77.05.06-.07.13-.2.19-.2 1.41.01 1.06-1.03 1.03-1.8-.04-1.24-.16-2.47-.23-3.7C19 .97 19 .41 19.67.42c.62.01.59.55.57 1-.03.98-.18 1.97.05 2.94.29 1.28.85 1.51 1.95.79.62-.4 1.28-.69 2.01-.83.88-.16 1.2.16 1.02 1.01-.04.18-.13.36-.19.54-.14.44-.84.77-.55 1.2.49.73 1.12 1.37 1.85 1.9.07.05.21.09.26.06.73-.46 1.17-.34 1.4.55.11.41.49.31.76.04.45-.45.89-.91 1.34-1.35.12-.11.25-.35.45-.2.14.11-.02.29-.07.43-.27.68-.58 1.34-.98 1.95-.64.99-.43 1.65.69 2.02.42.14.87.16 1.3.27.81.21.97.62.39 1.18-.67.65-.67 1.08.23 1.45.3.12.6.29.45.71-.34.95.27 1.64.78 2.22.49.56.49.89-.03 1.32-.15.12-.29.24-.44.36-1.09.85-1.14 1.04-.52 2.3.2.42-.06.64-.3.9-.74.82-.67 1.1.34 1.57.23.11.45.24.63.42.27.27.56.61.36 1-.22.44-.66.27-1.02.18-.31-.08-.6-.2-.9-.31-.21-.08-.44-.18-.58.08-.13.24.01.44.17.59.23.21.51.38.73.6.19.19.29.43.07.68-.2.22-.4.09-.6 0-.09-.04-.16-.1-.25-.14-.35-.2-.87-.76-.97-.62-.27.39.25.75.41 1.14.14.35.38.67.5 1.02.12.34.32.81-.16 1-.4.15-.71-.18-.92-.52-.27-.43-.49-.89-.78-1.3-.21-.3-.42-.78-.82-.71-.49.09-.27.63-.32.98-.06.35-.04.72-.57.68-.46-.03-.36.35-.39.61-.11 1.22.23 2.32.9 3.33.35.53.7 1.06 1.03 1.6.23.38.4.79.43 1.25.03.47-.02.91-.53 1.1-.57.22-.92-.13-1.17-.56-.2-.35-.36-.75-.44-1.14-.3-1.48-.94-2.82-1.64-4.14-.09-.17-.18-.34-.31-.47-.55-.54-1.2-1.15-1.98-.81-.79.34-.54 1.19-.43 1.87.08.53.26 1.05.34 1.58.08.59.25 1.3-.69 1.35-.87.05-.79-.64-.81-1.2-.01-.44.04-.89.04-1.33-.01-.92-.87-1.96-1.82-2.19-.82-.2-1.97.43-2.34 1.32-.6 1.43-.6 2.97-.83 4.48-.12.82-.19 1.64-.77 2.3-.19.02-.38.02-.57.02m-4.6-14.1c.01 1.76.86 2.64 2.61 2.68.76.02 1.52.04 2.28 0 1.07-.05 1.99.26 2.76 1.03.59.6 1.32 1 2.14 1.17.8.16 1.65.21 2.21-.48 1.61-1.99 1.83-3.57.22-5.45-.6-.7-.98-1.41-1.19-2.31-.46-2.03-1.95-3.17-3.63-2.88-1.06.18-2.01.61-2.71 1.45-.43.52-.92.79-1.58.93-1.96.4-3.12 1.9-3.11 3.86m10.14-13.23c-.02-1.07-.17-2.05-1.07-2.6-.68-.41-1.46-.17-2.06.27-1.45 1.05-2.55 2.38-3.05 4.13-.37 1.29.35 2.76 1.58 3.33 1.18.55 2.26.23 3.14-.98.91-1.25 1.41-2.67 1.46-4.15m5.52 3.15c-.03-1.19-.23-2.3-.8-3.32-.81-1.44-2.05-1.61-3.14-.36-1.36 1.57-1.86 3.44-1.53 5.48.16.98.68 1.8 1.71 2.09s1.93-.05 2.69-.78c.89-.86 1.04-1.98 1.07-3.11m-14.66 5.87c1.73.01 2.67-.82 2.76-2.37.05-1-.22-1.94-.74-2.8-.34-.55-.82-.74-1.46-.53-1.06.36-1.9.98-2.49 1.93-.57.92-.52 1.87-.02 2.79.44.85 1.28.94 1.95.98m16.58 1.61c.01-1.01-.32-1.92-.82-2.78-.4-.69-.98-.86-1.69-.51-.91.44-1.6 1.12-2.11 1.98-.58.98-.53 1.99.09 2.74.68.81 2.12 1.36 2.87 1.09 1.05-.38 1.65-1.29 1.66-2.52m-15.1-9.1c-.03-.23-.14-.38-.36-.33-.35.07-.52.33-.52.67 0 .19.13.37.36.33.34-.07.46-.36.52-.67m10.98-4.56c-.33.14-.29.44-.29.71.01.22.05.49.35.44.29-.05.37-.34.34-.59-.01-.24-.07-.5-.4-.56m3.91 8.85c-.01-.2-.03-.42-.29-.38-.34.05-.43.33-.4.62.02.18.09.42.31.39.34-.04.35-.36.38-.63m-7.39-9.6c-.01-.19-.09-.34-.27-.29-.37.09-.57.35-.59.73-.01.14.02.36.23.28.33-.13.56-.37.63-.72M.19 30.68c.03 0 .07 0 .09-.01.3-.12.61-.2.82.13.11.17.11.39-.05.51-.39.31-.61-.06-.86-.26z"/>
  <path d="M34.68 17.36c-.52-.16-1.32.24-1.44-.36-.08-.42.77-.22 1.19-.39.49-.2 1.03-.29 1.55-.36.3-.04.7 0 .73.4.02.31-.27.48-.57.52-.49.09-.99.14-1.46.19m-4.07 15.78c.61.03 1.39.87 1.31 1.43-.06.43-.39.84-.74.7-.71-.29-.73-1.1-.93-1.74-.09-.29.08-.42.36-.39M3.23 12.15c.61.12.85.59.91 1.13.05.46-.35.55-.7.55-.67 0-.82-.45-.8-1.01 0-.38.09-.69.59-.67m2.29 16.02c-.41-.07-.49-.4-.44-.65.13-.62.77-.74 1.21-1.02.19-.12.45.11.38.38-.18.62-.64.99-1.15 1.29M23.55 3.24c-.13.5-.55.59-.96.62s-.3-.32-.31-.55c-.01-.42.19-.64.64-.64.38.02.6.18.63.57m10.67 23.64c.34.08.72.22.71.68-.01.28-.26.43-.54.41-.38-.04-.64-.26-.68-.66-.03-.32.16-.45.51-.43M31.33 7.41c-.37-.04-.31-.29-.31-.5.01-.43.27-.6.67-.61.28-.01.42.14.38.4-.07.44-.42.59-.74.71M18.9 34.18c-.23-.04-.35-.17-.29-.39.09-.34.25-.69.62-.73.3-.03.24.3.22.5-.03.33-.19.58-.55.62m14.03-22.19c-.06.27-.28.34-.5.35-.25.02-.43-.12-.4-.4.03-.25.2-.4.45-.36.23.03.41.16.45.41m-27.88.22c-.17-.05-.27-.16-.23-.33.04-.23.16-.42.41-.43.17-.01.29.11.24.3-.07.21-.19.39-.42.46m29.12-.22c-.03.19-.08.37-.32.4-.19.02-.3-.08-.32-.26-.03-.23.08-.36.31-.38.17-.02.29.06.33.24"/>
</svg>
